<svg width="101" height="114" viewBox="0 0 101 114" fill="none" xmlns="http://www.w3.org/2000/svg">
<g id="Group 5">
<path id="Rectangle 2" d="M75 0H26C11.6406 0 0 11.6406 0 26V75C0 89.3594 11.6406 101 26 101H75C89.3594 101 101 89.3594 101 75V26C101 11.6406 89.3594 0 75 0Z" fill="#00C569"/>
<g id="Group 4">
<path id="Path 4" fill-rule="evenodd" clip-rule="evenodd" d="M67.611 52.602H22.627C22.2216 52.6002 21.8262 52.4752 21.4934 52.2435C21.1606 52.0119 20.906 51.6845 20.7635 51.3049C20.621 50.9253 20.5973 50.5113 20.6954 50.1179C20.7935 49.7245 21.009 49.3702 21.3131 49.102C21.6308 48.8247 22.0281 48.655 22.4481 48.617C22.5081 48.612 22.568 48.6119 22.627 48.6089H67.627C67.847 48.6089 68.066 48.62 68.285 48.643C69.1755 48.7336 70.0381 49.0052 70.8198 49.4413C71.6015 49.8774 72.2858 50.4687 72.8307 51.1788C73.3755 51.889 73.7694 52.703 73.9882 53.5709C74.2071 54.4389 74.2461 55.3424 74.103 56.2259C74.0246 56.683 73.9066 57.1324 73.7501 57.569C73.1375 59.3273 72.0373 60.8751 70.5781 62.0317C69.1189 63.1883 67.3608 63.906 65.509 64.1009C65.169 64.1369 64.8271 64.153 64.4851 64.155H50.1921C49.8251 65.533 49.459 66.912 49.082 68.288C48.982 68.629 48.874 68.966 48.743 69.296C48.0343 71.0855 46.8311 72.6366 45.274 73.7681C43.7169 74.8995 41.87 75.5647 39.9491 75.686C39.5388 75.7151 39.127 75.7134 38.717 75.681C37.7945 75.5999 36.8983 75.3312 36.0833 74.8915C35.2684 74.4518 34.5519 73.8503 33.9776 73.1238C33.4034 72.3973 32.9836 71.5612 32.744 70.6667C32.5044 69.7723 32.4499 68.8383 32.5841 67.922C32.6228 67.665 32.6755 67.4103 32.742 67.159L34.2181 61.649C34.2271 61.613 34.2381 61.5769 34.2501 61.5409C34.2621 61.5049 34.2671 61.49 34.2811 61.453L34.2871 61.438V61.4289C34.3091 61.3729 34.3337 61.318 34.361 61.264L34.3861 61.216V61.207L34.3961 61.188V61.18V61.172V61.1659L34.403 61.154L34.408 61.145L34.4131 61.136L34.42 61.124V61.118L34.425 61.1089C34.6368 60.7686 34.9463 60.4999 35.3131 60.3379H35.322C35.4127 60.2976 35.5063 60.2642 35.602 60.238C35.6427 60.2273 35.6837 60.2176 35.7251 60.209H35.742H35.752H35.7601H35.778C35.8339 60.1987 35.8903 60.1913 35.947 60.1869H36.0121H36.0951H36.117C40.202 60.1869 59.3021 60.2149 64.5101 60.1869C64.7101 60.1869 64.9181 60.172 65.1201 60.149C65.974 60.0493 66.7953 59.7619 67.5252 59.3076C68.2551 58.8533 68.8755 58.2432 69.342 57.521C69.6647 57.019 69.9089 56.4707 70.066 55.895V55.906L70.085 55.8329C70.1594 55.534 70.1804 55.2242 70.1471 54.918C70.0825 54.3397 69.8238 53.8004 69.4134 53.388C69.003 52.9756 68.465 52.7144 67.8871 52.647C67.7874 52.636 67.6872 52.6304 67.587 52.63L67.611 52.602ZM46.054 64.1529H37.6771C37.3111 65.5089 36.9431 66.864 36.5891 68.223C36.5077 68.5497 36.4847 68.8882 36.5211 69.223C36.5932 69.8733 36.8909 70.4779 37.3624 70.9317C37.8339 71.3855 38.4493 71.6598 39.102 71.707C39.2785 71.7179 39.4555 71.7179 39.632 71.707C40.8304 71.6438 41.9842 71.2314 42.9511 70.5207C43.9181 69.8099 44.6561 68.8319 45.0741 67.707C45.1421 67.523 45.201 67.335 45.253 67.146L46.0531 64.156L46.054 64.1529ZM40.8751 37.053L40.9131 36.953C42.0592 33.872 44.0466 31.1741 46.6494 29.1662C49.2522 27.1582 52.366 25.9207 55.6371 25.594C56.189 25.539 56.7431 25.512 57.2971 25.507C62.9391 25.492 68.5821 25.467 74.2241 25.507C74.4772 25.5115 74.7299 25.5299 74.981 25.5619C75.8606 25.6772 76.7077 25.9694 77.4713 26.421C78.2348 26.8725 78.8991 27.4741 79.4238 28.1893C79.9485 28.9046 80.3229 29.7188 80.5244 30.5827C80.7258 31.4466 80.7502 32.3424 80.596 33.216C80.5107 33.6747 80.3867 34.1253 80.2251 34.563C79.5998 36.2985 78.4981 37.8227 77.0464 38.9608C75.5946 40.099 73.8516 40.805 72.0171 40.998C71.6771 41.034 71.335 41.05 70.993 41.052H25.5621C25.1566 41.0502 24.7612 40.9252 24.4284 40.6935C24.0956 40.4619 23.841 40.1346 23.6985 39.7549C23.5559 39.3753 23.5322 38.9614 23.6303 38.5679C23.7285 38.1745 23.9439 37.8202 24.248 37.552C24.5658 37.2747 24.963 37.1049 25.383 37.0669C25.443 37.0619 25.5021 37.062 25.5621 37.059L40.8751 37.053ZM45.2651 37.053C45.2651 37.053 69.847 37.059 71.051 37.053H71.236C71.4361 37.043 71.636 37.025 71.842 36.996C72.9617 36.8307 74.0089 36.3425 74.8554 35.5912C75.7019 34.8399 76.3109 33.8581 76.608 32.766V32.777L76.627 32.704C76.7014 32.405 76.7224 32.0953 76.6891 31.789C76.6381 31.3286 76.4638 30.8906 76.1847 30.521C75.9055 30.1514 75.5318 29.8639 75.103 29.689C74.8059 29.5691 74.4894 29.5047 74.169 29.499C68.529 29.4583 62.889 29.4583 57.249 29.499C56.821 29.505 56.393 29.528 55.967 29.573C53.8548 29.7963 51.8245 30.5115 50.0385 31.6611C48.2526 32.8108 46.7609 34.3629 45.6831 36.193C45.5181 36.473 45.3641 36.76 45.2191 37.051L45.2651 37.053Z" fill="white"/>
<path id="Path 5" fill-rule="evenodd" clip-rule="evenodd" d="M50.191 64.153L49.66 66.144H45.5211L46.054 64.153H50.191Z" fill="white"/>
</g>
</g>
</svg>
